<?xml version="1.0" standalone="no"?><!DOCTYPE svg PUBLIC "-//W3C//DTD SVG 1.1//EN" "http://www.w3.org/Graphics/SVG/1.1/DTD/svg11.dtd"><svg t="1612102060491" class="icon" viewBox="0 0 1024 1024" version="1.1" xmlns="http://www.w3.org/2000/svg" p-id="16604" xmlns:xlink="http://www.w3.org/1999/xlink" width="200" height="200"><defs><style type="text/css"></style></defs><path d="M849.481143 706.267429v-289.645715c0-148.041143-110.738286-272.310857-259.657143-307.2v-20.845714c0-48.493714-41.618286-87.917714-92.818286-87.917714S404.260571 40.228571 404.260571 88.576v20.918857C255.195429 144.310857 144.603429 268.580571 144.603429 416.548571v291.986286l-34.377143 102.107429v6.070857c0 30.354286 25.6 55.149714 56.905143 55.149714h659.163428a56.758857 56.758857 0 0 0 57.636572-55.734857v-5.924571l-34.377143-103.862858zM477.842286 88.576c0-6.729143 7.899429-14.262857 19.163428-14.262857 11.337143 0 19.090286 7.533714 19.090286 14.262857v11.337143c-3.657143-0.146286-7.021714-0.512-10.678857-0.512h-16.822857c-3.657143 0-7.241143 0.512-10.752 0.512V88.502857z m-285.696 709.558857l26.038857-77.458286V416.694857c0-134.290286 121.270857-243.419429 270.409143-243.419428h16.822857c149.138286 0 270.336 109.202286 270.336 243.419428V718.262857l26.404571 80.018286h-610.011428v-0.146286z m315.245714 151.405714c-35.108571 0-63.707429-17.846857-63.707429-54.857142H369.956571c0 73.801143 61.586286 128.512 137.362286 128.512 75.629714 0 137.289143-54.857143 137.289143-128.438858H570.88c0.073143 36.937143-28.525714 54.857143-63.561143 54.857143z" p-id="16605" fill="#07b45b"></path></svg>