<?xml version="1.0" standalone="no"?><!DOCTYPE svg PUBLIC "-//W3C//DTD SVG 1.1//EN" "http://www.w3.org/Graphics/SVG/1.1/DTD/svg11.dtd"><svg t="1611236216583" class="icon" viewBox="0 0 1024 1024" version="1.1" xmlns="http://www.w3.org/2000/svg" p-id="1549" xmlns:xlink="http://www.w3.org/1999/xlink" width="200" height="200"><defs><style type="text/css"></style></defs><path d="M839.647708 1016.974416H184.352292a98.358181 98.358181 0 0 1-97.719492-98.358182V107.480583A98.358181 98.358181 0 0 1 184.352292 9.122402h383.213694a97.080802 97.080802 0 0 1 63.868948 24.90889l275.27517 243.979385a95.803423 95.803423 0 0 1 32.573164 72.810602v567.794955a98.358181 98.358181 0 0 1-99.63556 98.358182zM184.352292 74.907419a32.573164 32.573164 0 0 0-32.573164 32.573164v811.135651a32.573164 32.573164 0 0 0 32.573164 32.573164h655.295416a32.573164 32.573164 0 0 0 32.573164-32.573164V350.821279a30.657095 30.657095 0 0 0-10.857722-23.631512l-274.63648-243.979384a35.127922 35.127922 0 0 0-21.715442-8.302964z" fill="#7D7D7F" p-id="1550"></path><path d="M448.131051 354.653416H288.458679a33.211853 33.211853 0 0 1 0-63.868949H448.131051a33.211853 33.211853 0 1 1 0 63.868949zM667.840235 547.537641H288.458679a32.573164 32.573164 0 0 1 0-63.868949h379.381556a32.573164 32.573164 0 0 1 0 63.868949zM667.840235 741.060556H288.458679a33.211853 33.211853 0 0 1 0-63.868949h379.381556a33.211853 33.211853 0 0 1 0 63.868949zM883.078593 359.124242h-319.344744a32.573164 32.573164 0 0 1-33.211854-32.573164V42.334255a33.211853 33.211853 0 1 1 63.868949 0v251.643659h285.494202a32.573164 32.573164 0 1 1 0 63.868949z" fill="#7D7D7F" p-id="1551"></path></svg>