<?xml version="1.0" standalone="no"?><!DOCTYPE svg PUBLIC "-//W3C//DTD SVG 1.1//EN" "http://www.w3.org/Graphics/SVG/1.1/DTD/svg11.dtd"><svg t="1611234652629" class="icon" viewBox="0 0 1024 1024" version="1.1" xmlns="http://www.w3.org/2000/svg" p-id="1150" xmlns:xlink="http://www.w3.org/1999/xlink" width="200" height="200"><defs><style type="text/css"></style></defs><path d="M806.88 1002H202.2C90.74 1002 0.07 911.33 0.07 799.85V242.26c0-111.48 90.67-202.15 202.12-202.15h604.69c111.48 0 202.15 90.67 202.15 202.15v557.59c0 111.48-90.67 202.15-202.15 202.15zM202.2 120.61c-67.06 0-121.62 54.56-121.62 121.64v557.59c0 67.09 54.56 121.64 121.62 121.64h604.69c67.09 0 121.64-54.56 121.64-121.64V242.26c0-67.09-54.56-121.64-121.64-121.64l-604.69-0.01z" fill="#7D7D7F" p-id="1151"></path><path d="M243.31 395.56h522.48v80.5H243.31zM243.31 608.82h292.74v80.5H243.31z" fill="#7D7D7F" p-id="1152"></path></svg>