<?xml version="1.0" standalone="no"?><!DOCTYPE svg PUBLIC "-//W3C//DTD SVG 1.1//EN" "http://www.w3.org/Graphics/SVG/1.1/DTD/svg11.dtd"><svg t="1608381471392" class="icon" viewBox="0 0 1024 1024" version="1.1" xmlns="http://www.w3.org/2000/svg" p-id="1113" xmlns:xlink="http://www.w3.org/1999/xlink" width="200" height="200"><defs><style type="text/css"></style></defs><path d="M309.438439 176.644195a42.286358 42.286358 0 0 1-42.111862-42.170027V43.735902a42.170027 42.170027 0 1 1 84.28189 0v90.738266a42.111862 42.111862 0 0 1-42.170028 42.170027" p-id="1114" fill="#D03C35"></path><path d="M816.700244 84.626287h-19.543626v48.859067a74.044751 74.044751 0 0 1-73.81209 73.812089H722.821038a74.102917 74.102917 0 0 1-73.870254-73.812089v-48.859067H383.657687v48.859067A74.102917 74.102917 0 0 1 309.845598 207.297443h-0.639821a74.044751 74.044751 0 0 1-73.870255-73.812089v-48.859067h-29.082777A168.156619 168.156619 0 0 0 67.120737 159.718019 179.731565 179.731565 0 0 0 36.46749 260.344429v588.460919c0.465324 96.787483 76.255043 175.07832 169.610758 175.194652h610.738327c93.064888-0.348993 168.680109-78.523499 169.261765-175.194652V260.344429c0-96.903815-75.615221-175.369148-169.261765-175.718142M908.950814 848.805348c0 52.756158-41.239378 95.449676-92.134239 95.566007h-610.738327c-50.894861 0-92.134239-42.809848-92.134239-95.566007V355.32878H908.950814z" p-id="1115" fill="#D03C35"></path><path d="M722.821038 176.644195a42.286358 42.286358 0 0 1-42.170027-42.170027V43.735902a42.170027 42.170027 0 1 1 84.281889 0v90.738266A42.286358 42.286358 0 0 1 722.821038 176.644195" p-id="1116" fill="#D03C35"></path><path d="M319.908239 611.373553H246.968633a31.758393 31.758393 0 0 1-31.700227-31.700227V506.791885a31.758393 31.758393 0 0 1 31.700227-31.700227h72.939606a31.758393 31.758393 0 0 1 31.700228 31.700227v72.997772a31.816559 31.816559 0 0 1-31.700228 31.583896m234.116359 0H481.143157A31.758393 31.758393 0 0 1 449.44293 579.673326V506.791885a31.758393 31.758393 0 0 1 31.700227-31.700227H554.140929a31.758393 31.758393 0 0 1 31.700227 31.700227v72.997772a31.816559 31.816559 0 0 1-31.700227 31.583896m221.552599 0h-73.055937a31.758393 31.758393 0 0 1-31.700228-31.700227V506.791885a31.758393 31.758393 0 0 1 31.700228-31.700227h72.939606a31.758393 31.758393 0 0 1 31.700227 31.700227v72.997772a31.816559 31.816559 0 0 1-31.700227 31.583896m-455.668958 195.436265H246.968633a31.758393 31.758393 0 0 1-31.700227-31.642062v-72.997772a31.758393 31.758393 0 0 1 31.700227-31.700227h72.939606a31.758393 31.758393 0 0 1 31.700228 31.700227V775.167756a31.816559 31.816559 0 0 1-31.700228 31.583896m231.61524 0H483.411614a34.143181 34.143181 0 0 1-33.968684-34.026849v-68.170031a34.143181 34.143181 0 0 1 33.968684-34.085015h68.111865a34.143181 34.143181 0 0 1 34.085015 34.085015v68.170031a34.143181 34.143181 0 0 1-34.085015 34.085015m224.053718 0h-72.939606a31.758393 31.758393 0 0 1-31.700228-31.700228v-72.939606a31.758393 31.758393 0 0 1 31.700228-31.700227h72.939606a31.758393 31.758393 0 0 1 31.700227 31.700227V775.167756a31.816559 31.816559 0 0 1-31.700227 31.583896" p-id="1117" fill="#D03C35"></path></svg>