<?xml version="1.0" standalone="no"?><!DOCTYPE svg PUBLIC "-//W3C//DTD SVG 1.1//EN" "http://www.w3.org/Graphics/SVG/1.1/DTD/svg11.dtd"><svg t="1600328040591" class="icon" viewBox="0 0 1024 1024" version="1.1" xmlns="http://www.w3.org/2000/svg" p-id="3161" width="16" height="16" xmlns:xlink="http://www.w3.org/1999/xlink"><defs><style type="text/css"></style></defs><path d="M761.462154 169.038769c7.758769-1.654154 17.171692-7.876923 19.771077-14.414769 3.780923-9.216 2.323692-135.758769-1.063385-142.217846-4.411077-8.192-17.092923-11.854769-29.696-12.406154-11.067077 4.371692-21.622154 5.316923-25.324308 16.502154-3.150769 9.924923-0.078769 137.294769 2.323693 141.193846 4.450462 7.246769 19.219692 14.611692 33.988923 11.342769z m261.159384 111.300923c0-58.368 8.704-134.459077-17.526153-168.96-34.934154-46.08-105.314462-44.032-190.857847-43.323077 1.142154 61.124923 4.923077 133.868308-71.325538 119.453539-53.366154-10.043077-48.443077-58.761846-47.143385-119.453539H329.373538c1.220923 61.006769 6.144 109.056-47.143384 119.453539-15.635692 3.111385-30.956308-2.126769-39.502769-6.144-37.454769-17.683692-32.886154-60.061538-31.82277-113.270154-81.998769-0.433231-152.379077-3.465846-187.628307 39.227077C-10.397538 147.928615 2.363077 249.186462 2.363077 319.527385v572.888615c0 22.173538-2.363077 48.403692 4.411077 64.827077 31.901538 78.532923 124.179692 66.008615 236.977231 66.008615h679.108923c43.756308-7.128615 77.942154-27.136 93.144615-60.84923 10.24-22.370462 6.537846-61.361231 6.537846-92.75077V280.339692h0.078769z m-77.942153 647.128616c-17.250462 28.199385-142.690462 17.486769-192.984616 17.486769H269.981538c-43.913846 0-156.16 9.019077-181.011692-8.270769-20.519385-14.336-12.051692-114.924308-12.051692-151.473231V337.092923H947.987692v425.432615c0 30.050462 6.695385 148.676923-3.308307 164.94277z m-202.909539-487.384616c-34.697846 17.486769-57.540923 49.467077-81.171692 77.272616L468.676923 723.456c-40.920615-44.307692-81.92-88.536615-122.840615-132.883692-13.312-15.556923-42.180923-26.584615-60.337231-7.168-11.264 12.012308-15.044923 38.990769-4.411077 54.626461 43.480615 46.670769 87.000615 93.302154 130.520615 140.169846 12.327385 14.414769 27.766154 40.526769 49.348923 45.331693 30.641231 6.774154 71.207385-51.436308 84.519385-66.953846 76.327385-82.116923 152.851692-164.115692 229.218462-246.193231 21.937231-27.923692 6.695385-70.537846-32.925539-70.301539zM277.110154 169.156923c7.719385-1.654154 17.132308-7.876923 19.731692-14.454154 3.702154-9.255385 2.284308-135.798154-1.142154-142.257231-4.253538-8.152615-17.014154-11.815385-29.656615-12.327384-11.067077 4.411077-21.543385 5.356308-25.206154 16.462769-3.229538 10.043077-0.157538 137.294769 2.166154 141.193846 4.450462 7.286154 19.298462 14.651077 34.107077 11.382154z" p-id="3162" fill="#07C160"></path></svg>