<?xml version="1.0" standalone="no"?><!DOCTYPE svg PUBLIC "-//W3C//DTD SVG 1.1//EN" "http://www.w3.org/Graphics/SVG/1.1/DTD/svg11.dtd"><svg t="1600328935534" class="icon" viewBox="0 0 1024 1024" version="1.1" xmlns="http://www.w3.org/2000/svg" p-id="6905" xmlns:xlink="http://www.w3.org/1999/xlink" width="16" height="16"><defs><style type="text/css"></style></defs><path d="M166.4 563.2a32 32 0 0 0 32-32v-153.6a83.413333 83.413333 0 0 1 83.2-83.2h498.773333l-79.786666 79.786667a31.786667 31.786667 0 0 0 0 45.226666 32 32 0 0 0 45.226666 0l134.4-134.4a31.786667 31.786667 0 0 0 0-45.226666L746.666667 105.386667a32 32 0 0 0-45.226667 45.226666l79.786667 79.786667H281.6a147.413333 147.413333 0 0 0-147.2 147.2v153.6a32 32 0 0 0 32 32zM857.6 460.8a32 32 0 0 0-32 32v153.6a83.413333 83.413333 0 0 1-83.2 83.2H243.626667l79.786666-79.786667A32 32 0 1 0 277.333333 604.586667l-134.4 134.4a31.786667 31.786667 0 0 0 0 45.226666l134.4 134.4a32 32 0 0 0 45.226667 0 31.786667 31.786667 0 0 0 0-45.226666l-78.933333-79.786667H742.4a147.413333 147.413333 0 0 0 147.2-147.2v-153.6a32 32 0 0 0-32-32z" p-id="6906" fill="#767678"></path></svg>