<?xml version="1.0" standalone="no"?><!DOCTYPE svg PUBLIC "-//W3C//DTD SVG 1.1//EN" "http://www.w3.org/Graphics/SVG/1.1/DTD/svg11.dtd"><svg t="1600409792468" class="icon" viewBox="0 0 1024 1024" version="1.1" xmlns="http://www.w3.org/2000/svg" p-id="18312" xmlns:xlink="http://www.w3.org/1999/xlink" width="16" height="16"><defs><style type="text/css"></style></defs><path d="M725.333333 426.666667c-12.8 0-21.333333-4.266667-29.866666-12.8-17.066667-17.066667-17.066667-42.666667 0-59.733334L836.266667 213.333333l-140.8-140.8c-17.066667-17.066667-17.066667-42.666667 0-59.733333s42.666667-17.066667 59.733333 0l170.666667 170.666667c17.066667 17.066667 17.066667 42.666667 0 59.733333l-170.666667 170.666667c-8.533333 8.533333-17.066667 12.8-29.866667 12.8z" p-id="18313" fill="#767678"></path><path d="M128 512c-25.6 0-42.666667-17.066667-42.666667-42.666667V384c0-119.466667 93.866667-213.333333 213.333334-213.333333h597.333333c25.6 0 42.666667 17.066667 42.666667 42.666666s-17.066667 42.666667-42.666667 42.666667H298.666667C226.133333 256 170.666667 311.466667 170.666667 384v85.333333c0 25.6-17.066667 42.666667-42.666667 42.666667zM298.666667 1024c-12.8 0-21.333333-4.266667-29.866667-12.8l-170.666667-170.666667c-17.066667-17.066667-17.066667-42.666667 0-59.733333l170.666667-170.666667c17.066667-17.066667 42.666667-17.066667 59.733333 0s17.066667 42.666667 0 59.733334L187.733333 810.666667l140.8 140.8c17.066667 17.066667 17.066667 42.666667 0 59.733333-8.533333 8.533333-17.066667 12.8-29.866666 12.8z" p-id="18314" fill="#767678"></path><path d="M725.333333 853.333333H128c-25.6 0-42.666667-17.066667-42.666667-42.666666s17.066667-42.666667 42.666667-42.666667h597.333333c72.533333 0 128-55.466667 128-128v-85.333333c0-25.6 17.066667-42.666667 42.666667-42.666667s42.666667 17.066667 42.666667 42.666667v85.333333c0 119.466667-93.866667 213.333333-213.333334 213.333333z" p-id="18315" fill="#767678"></path></svg>