<?xml version="1.0" standalone="no"?><!DOCTYPE svg PUBLIC "-//W3C//DTD SVG 1.1//EN" "http://www.w3.org/Graphics/SVG/1.1/DTD/svg11.dtd"><svg t="1600241364057" class="icon" viewBox="0 0 1024 1024" version="1.1" xmlns="http://www.w3.org/2000/svg" p-id="2766" width="16" height="16" xmlns:xlink="http://www.w3.org/1999/xlink"><defs><style type="text/css"></style></defs><path d="M512.057454 409.56263c56.443297 0 102.436871 45.872669 102.436871 102.314967 0 56.4403-45.992574 102.435872-102.436871 102.435872-56.4403 0-102.435872-45.994573-102.435871-102.435872 0-56.442298 45.995572-102.314967 102.435871-102.314967m0-102.435872c-113.122408 0-204.74984 91.746338-204.749839 204.750839 0 113.184359 91.627432 204.870744 204.749839 204.870744 113.125406 0 204.752837-91.686385 204.752838-204.870744 0-113.005501-91.627432-204.750839-204.752838-204.750839M512.057454 204.74984c-28.339555 0-51.155485-22.875882-51.155485-51.158483V51.155485C460.901969 22.875882 483.717899 0 512.057454 0c28.223647 0 51.158483 22.875882 51.158483 51.155485v102.435872c0 28.2836-22.934836 51.158483-51.158483 51.158483M765.446772 309.707714c-13.090632 0-26.180265-4.863148-36.147371-14.951159-20.055117-20.056116-20.055117-52.419484 0-72.472602l72.294743-72.293744c20.052119-20.055117 52.356534-20.055117 72.412649 0 20.053118 20.056116 20.053118 52.419484 0 72.293744l-72.412649 72.472602c-9.970104 10.08801-22.938833 14.951159-36.147372 14.951159M972.83752 563.215937H870.401649c-28.21965 0-51.155485-22.877881-51.155486-51.158483 0-28.2826 22.935835-51.277389 51.155486-51.277388h102.43687c28.220649 0 51.157484 22.994788 51.157484 51.277388 0 28.280602-22.936834 51.158483-51.158483 51.158483M837.737518 889.076858c-13.087635 0-26.177268-4.984053-36.144374-15.073062l-72.416646-72.353697c-20.052119-19.994165-20.052119-52.359532 0-72.293744 20.056116-20.053118 52.359532-20.053118 72.416646 0l72.291746 72.293744c20.055117 20.056116 20.055117 52.419484 0 72.353697-9.967106 10.08901-22.935835 15.073062-36.147372 15.073062M511.819643 1023.994005c-28.220649 0-51.158483-22.877881-51.158483-51.158483V870.401649c0-28.2826 22.937833-51.157484 51.158483-51.157484 28.339555 0 51.155485 22.875882 51.155485 51.157484v102.433873c0 28.279603-22.81593 51.158483-51.155485 51.158483M186.017675 888.894003c-13.090632 0-26.180265-4.860151-36.147371-14.94916-20.053118-20.056116-20.053118-52.419484 0-72.472603l72.293744-72.294743c20.056116-20.055117 52.359532-20.055117 72.413649 0 20.055117 20.053118 20.055117 52.417486 0 72.294743l-72.413649 72.472603c-9.967106 10.08801-22.934836 14.94916-36.146373 14.94916M153.594354 563.034081H51.158483C22.818928 563.034081 0 540.096248 0 511.876598c0-28.280602 22.818928-51.277389 51.158483-51.277389h102.435871c28.220649 0 51.158483 22.997786 51.158483 51.277389 0 28.21965-22.938833 51.157484-51.158483 51.157483M258.671134 309.648761c-13.209538 0-26.180265-5.044005-36.147371-15.011112L149.991208 222.224c-19.934212-20.055117-19.934212-52.359532 0-72.415647 20.053118-19.934212 52.479437-19.934212 72.532555 0l72.293744 72.415647c20.056116 20.053118 20.056116 52.416487 0 72.413649-9.966107 9.966107-23.05574 15.011111-36.146373 15.011112" fill="#767678" p-id="2767"></path></svg>