<?xml version="1.0" standalone="no"?><!DOCTYPE svg PUBLIC "-//W3C//DTD SVG 1.1//EN" "http://www.w3.org/Graphics/SVG/1.1/DTD/svg11.dtd"><svg t="1598111963984" class="icon" viewBox="0 0 1024 1024" version="1.1" xmlns="http://www.w3.org/2000/svg" p-id="1160" xmlns:xlink="http://www.w3.org/1999/xlink" width="200" height="200"><defs><style type="text/css"></style></defs><path d="M814.4 453.2H597.6c-14.8 0-26.8-12-26.8-26.8V209.6c0-32.2-25.6-59.1-57.8-59.6-32.8-0.5-59.7 26-59.7 58.7v217.7c0 14.8-12 26.8-26.8 26.8H209.6c-32.2 0-59.1 25.6-59.6 57.8-0.5 32.8 26 59.7 58.7 59.7h217.7c14.8 0 26.8 12 26.8 26.8v216.8c0 32.2 25.6 59.1 57.8 59.6 32.8 0.5 59.7-26 59.7-58.7V597.6c0-14.8 12-26.8 26.8-26.8h217.7c32.7 0 59.2-26.8 58.7-59.7-0.4-32.2-27.3-57.9-59.5-57.9z" p-id="1161" fill="#07C160"></path></svg>