<?xml version="1.0" standalone="no"?><!DOCTYPE svg PUBLIC "-//W3C//DTD SVG 1.1//EN" "http://www.w3.org/Graphics/SVG/1.1/DTD/svg11.dtd"><svg t="1599199526108" class="icon" viewBox="0 0 1028 1024" version="1.1" xmlns="http://www.w3.org/2000/svg" p-id="2369" xmlns:xlink="http://www.w3.org/1999/xlink" width="371.4453125" height="370"><defs><style type="text/css"></style></defs><path d="M512.277 954.412c-118.89 0-230.659-46.078-314.73-129.73S67.12 629.666 67.12 511.222s46.327-229.744 130.398-313.427 195.82-129.73 314.73-129.73 230.659 46.078 314.72 129.73S957.397 392.81 957.397 511.183 911.078 740.96 826.97 824.642s-195.8 129.77-314.692 129.77z m0-822.784c-101.972 0-197.809 39.494-269.865 111.222s-111.7 166.997-111.7 268.373 39.653 196.695 111.67 268.335S410.246 890.78 512.248 890.78s197.809-39.484 269.865-111.222 111.7-166.998 111.67-268.374c-0.03-101.375-39.654-196.665-111.67-268.303S614.22 131.628 512.277 131.628z m222.585 347.8H544.073V288.64c-0.76-17.561-15.613-31.18-33.173-30.419-16.495 0.714-29.704 13.924-30.419 30.419v190.787H289.703c-17.56 0.761-31.179 15.614-30.419 33.174 0.715 16.494 13.924 29.703 30.42 30.418H480.48v190.788c0.761 17.56 15.614 31.179 33.174 30.419 16.494-0.715 29.703-13.925 30.418-30.42V543.02h190.788c17.56 0.762 32.413-12.857 33.173-30.418 0.762-17.561-12.858-32.414-30.419-33.174a31.683 31.683 0 0 0-2.753 0z" p-id="2370" fill="#ffffff"></path></svg>